<?xml version="1.0"?>
<svg height="300" width="300" fill="#ffffff" xmlns:dc="http://purl.org/dc/elements/1.1/" xmlns:cc="http://creativecommons.org/ns#" xmlns:rdf="http://www.w3.org/1999/02/22-rdf-syntax-ns#" xmlns:svg="http://www.w3.org/2000/svg" xmlns="http://www.w3.org/2000/svg" xmlns:sodipodi="http://sodipodi.sourceforge.net/DTD/sodipodi-0.dtd" xmlns:inkscape="http://www.inkscape.org/namespaces/inkscape" version="1.1" x="0px" y="0px" viewBox="0 0 100 100"><g transform="translate(0,-952.36218)"><path style="color:#ffffff;enable-background:accumulate;" d="m 60,960.36218 c 6.0124,12.9777 20.4656,2.189 28,10 -1.7546,-13.4355 -13.4799,-2.6091 -28,-10 z m 18,12 0,26.5 -14,7.50002 0,-14.00002 -28,14.00002 0,-14.00002 -27.9999998,14.00002 0,38 83.9999998,0 0,-72.00002 -14,0 z m -59,47.00002 14,0 0,10 -14,0 0,-10 z m 24,0 14,0 0,10 -14,0 0,-10 z m 24,0 14,0 0,10 -14,0 0,-10 z" fill="#ffffff" stroke="none" marker="none" visibility="visible" display="inline" overflow="visible"></path></g></svg>