<?xml version="1.0"?>
<svg height="300" width="300" fill="#ffffff" xmlns="http://www.w3.org/2000/svg" xmlns:xlink="http://www.w3.org/1999/xlink" version="1.1" x="0px" y="0px" viewBox="0 0 500 500" enable-background="new 0 0 500 500" xml:space="preserve"><g><g><rect x="80" y="44" width="117" height="117"></rect><g><path d="M197,154c-34.1,0-68.2,0-102.3,0c-4.9,0-9.8,0-14.7,0c2.3,2.3,4.7,4.7,7,7c0-34.1,0-68.2,0-102.3 c0-4.9,0-9.8,0-14.7c-2.3,2.3-4.7,4.7-7,7c34.1,0,68.2,0,102.3,0c4.9,0,9.8,0,14.7,0c-2.3-2.3-4.7-4.7-7-7c0,34.1,0,68.2,0,102.3 c0,4.9,0,9.8,0,14.7c0,9.1,14.1,9.1,14.1,0c0-34.1,0-68.2,0-102.3c0-4.9,0-9.8,0-14.7c0-3.8-3.2-7-7-7c-34.1,0-68.2,0-102.3,0 c-4.9,0-9.8,0-14.7,0c-3.8,0-7,3.2-7,7c0,34.1,0,68.2,0,102.3c0,4.9,0,9.8,0,14.7c0,3.8,3.2,7,7,7c34.1,0,68.2,0,102.3,0 c4.9,0,9.8,0,14.7,0C206.1,168.1,206.1,154,197,154z"></path></g></g><g><rect x="303" y="174" width="117" height="117"></rect><g><path d="M420,284c-34.1,0-68.2,0-102.3,0c-4.9,0-9.8,0-14.7,0c2.3,2.3,4.7,4.7,7,7c0-34.1,0-68.2,0-102.3 c0-4.9,0-9.8,0-14.7c-2.3,2.3-4.7,4.7-7,7c34.1,0,68.2,0,102.3,0c4.9,0,9.8,0,14.7,0c-2.3-2.3-4.7-4.7-7-7c0,34.1,0,68.2,0,102.3 c0,4.9,0,9.8,0,14.7c0,9.1,14.1,9.1,14.1,0c0-34.1,0-68.2,0-102.3c0-4.9,0-9.8,0-14.7c0-3.8-3.2-7-7-7c-34.1,0-68.2,0-102.3,0 c-4.9,0-9.8,0-14.7,0c-3.8,0-7,3.2-7,7c0,34.1,0,68.2,0,102.3c0,4.9,0,9.8,0,14.7c0,3.8,3.2,7,7,7c34.1,0,68.2,0,102.3,0 c4.9,0,9.8,0,14.7,0C429.1,298.1,429.1,284,420,284z"></path></g></g><g><rect x="302.7" y="338.9" width="117" height="117"></rect><g><path d="M419.7,448.9c-34.1,0-68.2,0-102.3,0c-4.9,0-9.8,0-14.7,0c2.3,2.3,4.7,4.7,7,7c0-34.1,0-68.2,0-102.3 c0-4.9,0-9.8,0-14.7c-2.3,2.3-4.7,4.7-7,7c34.1,0,68.2,0,102.3,0c4.9,0,9.8,0,14.7,0c-2.3-2.3-4.7-4.7-7-7c0,34.1,0,68.2,0,102.3 c0,4.9,0,9.8,0,14.7c0,9.1,14.1,9.1,14.1,0c0-34.1,0-68.2,0-102.3c0-4.9,0-9.8,0-14.7c0-3.8-3.2-7-7-7c-34.1,0-68.2,0-102.3,0 c-4.9,0-9.8,0-14.7,0c-3.8,0-7,3.2-7,7c0,34.1,0,68.2,0,102.3c0,4.9,0,9.8,0,14.7c0,3.8,3.2,7,7,7c34.1,0,68.2,0,102.3,0 c4.9,0,9.8,0,14.7,0C428.8,463,428.8,448.9,419.7,448.9z"></path></g></g><g><g><path d="M128.7,161.7c0,26.6,0,53.2,0,79.8c0,42.4,0,84.7,0,127.1c0,9.7,0,19.5,0,29.2c0,5.4,4.6,10,10,10 c48,0,96,0,144.1,0c6.7,0,13.4,0,20.1,0c12.9,0,12.9-20,0-20c-48,0-96,0-144.1,0c-6.7,0-13.4,0-20.1,0c3.3,3.3,6.7,6.7,10,10 c0-26.6,0-53.2,0-79.8c0-42.4,0-84.7,0-127.1c0-9.7,0-19.5,0-29.2C148.7,148.9,128.7,148.9,128.7,161.7L128.7,161.7z"></path></g></g><g><g><path d="M138.7,239.6c9.1,0,9.1-14.1,0-14.1C129.6,225.5,129.6,239.6,138.7,239.6L138.7,239.6z"></path></g></g><g><line x1="140" y1="233" x2="303" y2="233"></line><g><path d="M139.6,242.9c47.8,0,95.5,0,143.3,0c6.7,0,13.4,0,20.2,0c12.9,0,12.9-20,0-20c-47.8,0-95.5,0-143.3,0 c-6.7,0-13.4,0-20.2,0C126.7,222.9,126.7,242.9,139.6,242.9L139.6,242.9z"></path></g></g></g></svg>